<svg width="221" height="45" viewBox="0 0 221 45" fill="none" xmlns="http://www.w3.org/2000/svg">
<g clip-path="url(#clip0)">
<path d="M91.754 26.834C91.5135 26.1517 91.1231 25.5317 90.6116 25.0201C89.9737 24.4215 89.2489 23.9231 88.4617 23.5417C87.3759 22.9975 86.2522 22.5323 85.0995 22.1496C85.0617 22.1483 85.0244 22.1413 84.9886 22.1289C84.9464 22.1153 84.9075 22.0929 84.8744 22.0633C84.8291 22.0667 84.7838 22.0583 84.7428 22.0388C84.6996 22.0231 84.6538 22.016 84.6079 22.0179C84.5182 21.9871 84.428 21.9559 84.3379 21.9284C84.2478 21.9009 84.1581 21.8691 84.068 21.8382C84.0083 21.8385 83.9489 21.8304 83.8915 21.8141C83.8287 21.8005 83.768 21.7783 83.7113 21.7481C83.6355 21.7504 83.5597 21.7423 83.4861 21.724C83.4238 21.7092 83.3635 21.687 83.3064 21.658C83.1883 21.6305 83.0605 21.5991 82.9255 21.5683C82.7906 21.5374 82.6484 21.509 82.4994 21.4781C82.0217 21.3292 81.5681 21.1735 81.1353 21.0072C80.7124 20.8493 80.3006 20.6632 79.9027 20.4499C79.5459 20.2706 79.2436 19.9992 79.0269 19.6638C78.8326 19.3476 78.7323 18.9826 78.7376 18.6115C78.7257 18.2907 78.8209 17.9751 79.0081 17.7144C79.2275 17.4493 79.526 17.2614 79.8598 17.178C80.2772 17.0521 80.7045 16.9617 81.1372 16.908C81.5975 16.8492 82.1013 16.7899 82.6363 16.7277H91.1052V13.2344L82.9964 13.3245C81.9159 13.3184 80.8368 13.4005 79.7697 13.5699C78.8349 13.7205 77.9184 13.9677 77.0346 14.3074C76.2194 14.5896 75.5454 15.1771 75.1547 15.9463C74.7034 16.8893 74.4884 17.9279 74.528 18.9725C74.5121 19.762 74.6571 20.5464 74.9542 21.2781C75.2393 21.9568 75.675 22.5619 76.2282 23.0477C77.5843 24.123 79.1598 24.8877 80.8436 25.2877C81.0234 25.3499 81.2105 25.4086 81.4042 25.4674C81.598 25.5262 81.8024 25.5889 82.0102 25.6477C82.098 25.6776 82.1883 25.6995 82.2801 25.7132C82.3702 25.7306 82.4729 25.7513 82.592 25.7827C82.6797 25.8128 82.7701 25.8348 82.8619 25.8482C82.9535 25.8646 83.0437 25.8879 83.1319 25.9176C83.8173 26.1254 84.4512 26.3366 85.0364 26.5443C85.5664 26.7301 86.0819 26.9547 86.5789 27.2163C86.9799 27.4126 87.326 27.7052 87.5863 28.068C87.8114 28.3971 87.9292 28.7877 87.9238 29.1863C87.937 29.5216 87.8606 29.8544 87.7025 30.1504C87.5529 30.4021 87.3124 30.5868 87.0306 30.6662C86.734 30.7833 86.4249 30.8658 86.1094 30.912C85.7755 30.9578 85.4389 30.9797 85.1019 30.9776H84.5654C84.5026 30.9777 84.4406 30.9623 84.3852 30.9327H83.8486C83.814 30.9313 83.7801 30.9225 83.7491 30.907C83.7181 30.8914 83.6908 30.8695 83.6689 30.8426H74.5256V34.7412H83.867C83.9507 34.744 84.0335 34.7591 84.1128 34.7861H85.5049C85.5909 34.7576 85.6809 34.7424 85.7715 34.7412H86.6025C86.804 34.7413 87.0053 34.7261 87.2046 34.6959C87.7998 34.6093 88.3809 34.4442 88.9326 34.2048C89.4873 33.9625 90.0062 33.6456 90.4752 33.2629C91.0047 32.847 91.4146 32.2981 91.6629 31.6721C91.9702 30.878 92.1298 30.0344 92.1338 29.1829C92.1442 28.3838 92.0157 27.5891 91.754 26.834V26.834Z" fill="white"/>
<path d="M112.438 16.9307C112.009 16.0066 111.364 15.1992 110.558 14.5764C109.733 13.9256 108.8 13.4252 107.802 13.0981C106.766 12.7641 105.684 12.5981 104.596 12.6064C104.009 12.6022 103.424 12.6614 102.851 12.7828C102.323 12.8994 101.811 13.0809 101.328 13.3232C100.846 13.5616 100.375 13.8224 99.9147 14.1055C99.451 14.3895 99.0109 14.6801 98.592 14.9813V3.66992H94.6938V34.7394H98.592V22.0359C98.5923 21.8928 98.6075 21.7502 98.6373 21.6102C98.6648 21.4613 98.6961 21.3056 98.727 21.1393C98.7578 20.973 98.7863 20.8207 98.8171 20.6684C98.9691 20.1534 99.1793 19.6573 99.4438 19.19C99.7313 18.6878 100.078 18.2218 100.476 17.8018C100.918 17.3649 101.455 17.0352 102.044 16.8377C102.751 16.5998 103.494 16.4857 104.239 16.5003C104.894 16.4927 105.542 16.6225 106.144 16.8815C106.747 17.1488 107.288 17.5378 107.734 18.0239C108.221 18.516 108.59 19.1129 108.811 19.769C109.057 20.5066 109.177 21.2801 109.167 22.0576V34.7351H113.066V19.9926C113.082 18.9384 112.867 17.8935 112.438 16.9307V16.9307Z" fill="white"/>
<path d="M137.453 19.1914C136.984 17.9086 136.217 16.7561 135.213 15.8297C134.254 15.0026 133.191 14.3032 132.052 13.7488C130.969 13.2271 129.813 12.8721 128.624 12.696H128.424C128.354 12.6961 128.285 12.6808 128.223 12.6511H127.527C127.457 12.6509 127.389 12.6356 127.326 12.6063H126.921C125.55 12.6005 124.19 12.8506 122.912 13.3438C121.59 13.8688 120.369 14.6191 119.304 15.5612C118.224 16.5127 117.367 17.6899 116.794 19.0096C116.208 20.4149 115.918 21.9259 115.942 23.4482V23.5383C115.93 25.0447 116.165 26.5428 116.638 27.973C117.099 29.3434 117.805 30.6186 118.722 31.7363C119.673 32.891 120.92 33.7659 122.33 34.2674C124.022 34.8564 125.805 35.1379 127.596 35.0985C128.921 35.1152 130.239 34.9032 131.491 34.4718C132.63 34.0721 133.659 33.4118 134.496 32.5437C135.326 31.7256 136.042 30.7985 136.622 29.7879C137.173 28.8272 137.587 27.7948 137.855 26.7202C137.917 26.4792 137.969 26.2421 138.014 26.0001C138.059 25.7582 138.094 25.5258 138.125 25.2833C138.125 25.164 138.133 25.0448 138.149 24.9266C138.163 24.8071 138.17 24.6868 138.17 24.5665C138.2 24.4656 138.216 24.3606 138.215 24.2551V23.895C138.245 22.2941 137.987 20.7009 137.453 19.1914V19.1914ZM133.444 27.3242C133.172 28.2449 132.634 29.0643 131.896 29.6789C131.212 30.214 130.438 30.6231 129.611 30.887C128.741 31.1622 127.833 31.2991 126.921 31.2924C126.023 31.3112 125.13 31.174 124.279 30.887C123.555 30.6355 122.907 30.2042 122.396 29.6336C121.928 29.0823 121.523 28.481 121.187 27.8405C120.865 27.2329 120.624 26.5857 120.471 25.9153C120.439 25.7042 120.401 25.5031 120.356 25.3093C120.311 25.1156 120.273 24.9145 120.245 24.7034C120.215 24.5028 120.2 24.3004 120.201 24.0975V22.8235C120.2 22.702 120.215 22.581 120.245 22.4634C120.273 22.3458 120.304 22.2224 120.336 22.1067C120.458 21.4075 120.676 20.7284 120.983 20.0884C121.305 19.4206 121.72 18.8016 122.216 18.2499C122.731 17.6487 123.396 17.1937 124.144 16.9306C125.037 16.628 125.977 16.4837 126.92 16.5045C127.95 16.4865 128.975 16.653 129.946 16.9961C130.785 17.299 131.543 17.7894 132.164 18.4298C132.76 19.0866 133.217 19.8572 133.507 20.6953C133.815 21.6113 133.966 22.5728 133.954 23.5393C133.986 24.8199 133.813 26.0975 133.444 27.3242V27.3242Z" fill="white"/>
<path d="M162.913 22.9793C162.881 22.664 162.836 22.3282 162.778 21.9718C162.747 21.6086 162.687 21.2485 162.598 20.8949C162.508 20.5348 162.405 20.1781 162.283 19.8181C161.973 18.8986 161.527 18.0304 160.961 17.2421C160.35 16.3888 159.653 15.601 158.88 14.8912C158.006 14.0941 156.965 13.5037 155.833 13.1636C154.479 12.7711 153.074 12.5832 151.664 12.6064H151.283C151.155 12.6048 151.027 12.6199 150.903 12.6512C150.767 12.6504 150.632 12.6573 150.498 12.6719C150.38 12.6859 150.245 12.71 150.096 12.7414C149.824 12.7699 149.555 12.8138 149.289 12.873C149.019 12.9351 148.752 13.0079 148.482 13.0981C147.493 13.3983 146.55 13.8352 145.681 14.3961C144.751 15.0049 143.9 15.7285 143.15 16.5499C142.327 17.4433 141.708 18.5054 141.336 19.6624C140.912 21.0026 140.708 22.4025 140.73 23.8079V44.2875H144.629V24.6143C144.615 23.6778 144.729 22.7437 144.966 21.8378C145.162 21.0901 145.505 20.3887 145.974 19.7742C146.39 19.213 146.864 18.6961 147.386 18.2317C147.853 17.8165 148.372 17.4629 148.929 17.1795C149.162 17.0613 149.401 16.956 149.645 16.8642C149.876 16.7766 150.117 16.7163 150.362 16.6844C150.584 16.6284 150.809 16.5845 151.037 16.5528C151.244 16.522 151.453 16.5069 151.663 16.5075C152.524 16.506 153.377 16.673 154.174 16.9992C155.028 17.3582 155.815 17.8578 156.504 18.4775C157.238 19.1218 157.813 19.9279 158.183 20.8323C158.569 21.8081 158.76 22.8505 158.744 23.8999C158.754 24.8804 158.61 25.8563 158.318 26.7921C158.044 27.6541 157.627 28.464 157.085 29.1883C156.553 29.9032 155.831 30.4544 155.001 30.779C154.049 31.1402 153.037 31.3153 152.02 31.2948H151.438C151.273 31.2968 151.108 31.2816 150.946 31.2495C150.773 31.2509 150.601 31.2359 150.431 31.2047C150.264 31.1734 150.109 31.1459 149.96 31.1146C149.69 31.0557 149.413 30.9796 149.132 30.8894C148.852 30.7993 148.554 30.6966 148.256 30.578C147.958 30.4594 147.623 30.3081 147.249 30.1278C146.875 29.9475 146.466 29.7263 146.016 29.4564V33.76C146.644 34.0914 147.296 34.376 147.965 34.6116C148.578 34.8194 149.122 34.9819 149.6 35.1033C150.109 35.2209 150.586 35.3111 151.037 35.3733C151.482 35.4314 151.931 35.4604 152.38 35.46C153.725 35.3723 155.052 35.1009 156.323 34.6532C157.38 34.2845 158.343 33.6889 159.145 32.9082C159.88 32.2126 160.528 31.4301 161.073 30.578C161.57 29.7901 161.976 28.948 162.282 28.0681C162.403 27.708 162.507 27.3513 162.597 26.9913C162.685 26.6388 162.746 26.2798 162.777 25.9177C162.836 25.5577 162.881 25.2082 162.912 24.8649C162.943 24.5217 162.953 24.2002 162.953 23.9009C162.953 23.6015 162.939 23.2926 162.913 22.9793Z" fill="white"/>
<path d="M178.471 13.233L176.006 17.5332C175.888 17.7742 175.765 18.0042 175.649 18.2288C175.533 18.4535 175.408 18.6549 175.289 18.8347C175.17 19.0145 175.048 19.1774 174.932 19.3264C174.817 19.4678 174.712 19.6171 174.618 19.7732C174.433 20.0194 174.215 20.2385 173.97 20.424C173.757 20.5826 173.523 20.7108 173.274 20.8048C173.044 20.8998 172.803 20.9672 172.557 21.0058C172.29 21.0507 172.016 21.0437 171.75 20.9851H169.645V3.66992H165.747V34.7394H169.645V24.8823L173.184 24.972C173.934 24.9556 174.681 25.053 175.401 25.2612C175.944 25.4093 176.423 25.7311 176.766 26.1771C177.094 26.5675 177.345 27.0162 177.506 27.4997C177.673 28.0134 177.756 28.5505 177.752 29.0905V34.7394H181.651V27.5726C181.626 27.5487 181.61 27.5169 181.606 27.4824V26.942C181.518 26.3798 181.36 25.8309 181.135 25.308C180.902 24.7666 180.594 24.2607 180.219 23.8054C179.822 23.3207 179.315 22.9375 178.741 22.6872C178.086 22.4019 177.391 22.2196 176.681 22.1468C177.019 22.067 177.333 21.9068 177.597 21.6797C177.969 21.3646 178.307 21.0106 178.604 20.6236C178.964 20.1767 179.321 19.685 179.681 19.1451C180.041 18.6052 180.398 18.0269 180.754 17.4002C180.844 17.2199 180.941 17.0398 181.043 16.8598C181.151 16.68 181.261 16.4857 181.381 16.2785C181.498 16.0982 181.609 15.9112 181.718 15.7175C181.827 15.5237 181.933 15.3226 182.055 15.1115C182.114 15.0544 182.16 14.986 182.19 14.9105C182.226 14.8243 182.27 14.7419 182.322 14.6647C182.353 14.6059 182.391 14.5369 182.436 14.4641C182.481 14.3859 182.518 14.3036 182.547 14.2183C182.605 14.1593 182.65 14.0899 182.682 14.0139C182.717 13.9269 182.763 13.8444 182.817 13.768C182.845 13.7092 182.883 13.6332 182.928 13.543C182.978 13.4442 183.015 13.3396 183.039 13.2316L178.471 13.233Z" fill="white"/>
<path d="M206.765 22.9793C206.738 22.6641 206.693 22.3282 206.63 21.9718C206.602 21.6086 206.543 21.2483 206.454 20.8949C206.364 20.5348 206.256 20.1782 206.139 19.8181C205.826 18.8992 205.381 18.0312 204.816 17.2421C204.204 16.3887 203.506 15.6009 202.732 14.8913C201.859 14.0935 200.818 13.503 199.685 13.1637C198.332 12.7709 196.928 12.5831 195.52 12.6064H195.139C195.011 12.6049 194.882 12.6199 194.758 12.6513C194.623 12.6504 194.487 12.6573 194.353 12.672C194.235 12.686 194.1 12.7101 193.951 12.7414C193.68 12.7697 193.411 12.8136 193.144 12.873C192.874 12.9352 192.605 13.008 192.338 13.0981C191.348 13.3982 190.406 13.8351 189.537 14.3962C188.606 15.0049 187.756 15.7286 187.006 16.5499C186.183 17.4443 185.563 18.5061 185.188 19.6624C184.767 21.0032 184.564 22.4028 184.586 23.8079V44.2875H188.484V24.6143C188.47 23.6778 188.584 22.7438 188.822 21.8378C189.017 21.0897 189.359 20.3882 189.829 19.7742C190.245 19.2123 190.719 18.6954 191.242 18.2317C191.709 17.8166 192.227 17.463 192.784 17.1795C193.017 17.0615 193.257 16.9562 193.501 16.8642C193.732 16.7767 193.973 16.7163 194.218 16.6844C194.439 16.6284 194.663 16.5845 194.889 16.5528C195.098 16.5222 195.309 16.507 195.52 16.5075C196.379 16.5061 197.231 16.6731 198.026 16.9992C198.881 17.3572 199.669 17.857 200.357 18.4776C201.093 19.1207 201.67 19.927 202.039 20.8323C202.425 21.8083 202.616 22.8506 202.6 23.9C202.61 24.8804 202.467 25.8563 202.174 26.7922C201.9 27.6541 201.483 28.464 200.942 29.1883C200.409 29.9024 199.687 30.4534 198.857 30.7791C197.906 31.1401 196.894 31.3152 195.877 31.2949H195.295C195.13 31.2968 194.965 31.2817 194.803 31.2496C194.63 31.251 194.457 31.2359 194.287 31.2047C194.121 31.1734 193.965 31.1459 193.816 31.1146C193.546 31.0558 193.269 30.9796 192.985 30.8894C192.701 30.7993 192.411 30.6966 192.113 30.5781C191.815 30.4595 191.479 30.3081 191.105 30.1278C190.732 29.9475 190.319 29.7263 189.873 29.4564V33.76C190.501 34.0915 191.152 34.3761 191.822 34.6117C192.435 34.8194 192.979 34.9819 193.456 35.1034C193.965 35.221 194.443 35.311 194.889 35.3733C195.336 35.4314 195.786 35.4604 196.236 35.4601C197.581 35.3723 198.908 35.1009 200.18 34.6532C201.237 34.2845 202.2 33.6888 203.001 32.9082C203.735 32.2117 204.383 31.4294 204.93 30.5781C205.427 29.7902 205.832 28.9481 206.138 28.0681C206.256 27.708 206.363 27.3514 206.453 26.9913C206.542 26.6391 206.601 26.2799 206.63 25.9178C206.692 25.5577 206.737 25.2082 206.765 24.865C206.792 24.5218 206.81 24.2002 206.81 23.9009C206.81 23.6016 206.797 23.2926 206.765 22.9793Z" fill="white"/>
<path d="M218.627 12.6058C218.145 12.6027 217.664 12.6549 217.194 12.7615C216.775 12.8549 216.368 12.9978 215.982 13.1872C215.628 13.3481 215.29 13.5434 214.973 13.7704C214.696 13.975 214.435 14.1996 214.191 14.4424L213.921 14.7124C213.837 14.7944 213.761 14.8848 213.696 14.9822C213.624 15.0511 213.556 15.1253 213.495 15.204C213.455 15.2616 213.402 15.308 213.339 15.3389V13.2339H209.44V34.7389H213.339V24.2112C213.339 23.9413 213.353 23.6295 213.384 23.2694C213.385 22.9236 213.415 22.5784 213.474 22.2378C213.539 21.8596 213.628 21.4861 213.741 21.1195C213.895 20.6009 214.098 20.0977 214.347 19.617C214.61 19.1103 214.934 18.6372 215.311 18.2076C215.747 17.7453 216.263 17.3653 216.834 17.0858C217.516 16.7609 218.241 16.5349 218.988 16.4144H220.061V12.5171L218.627 12.6058Z" fill="white"/>
<path d="M1.20657 33.6903L4.41701 34.7398C5.08352 34.9577 5.80046 34.594 6.01834 33.9274L11.8562 16.0687C12.074 15.4022 11.7104 14.6852 11.0438 14.4674L7.8334 13.4179C7.16689 13.2 6.44995 13.5637 6.23207 14.2302L0.394242 32.089C0.176366 32.7555 0.54006 33.4724 1.20657 33.6903Z" fill="white"/>
<path d="M35.8843 33.4729V14.6842C35.8843 13.983 35.3158 13.4146 34.6146 13.4146L15.8259 13.4146C15.1247 13.4146 14.5562 13.983 14.5562 14.6842V33.4729C14.5562 34.1741 15.1247 34.7426 15.8259 34.7426H34.6146C35.3158 34.7426 35.8843 34.1741 35.8843 33.4729Z" fill="white"/>
<path d="M62.2665 9.8377L63.0639 6.55557C63.2294 5.87416 62.8112 5.18758 62.1298 5.02204L43.8722 0.586498C43.1908 0.420956 42.5042 0.839144 42.3387 1.52055L41.5413 4.80269C41.3758 5.48409 41.794 6.17067 42.4754 6.33621L60.733 10.7718C61.4144 10.9373 62.101 10.5191 62.2665 9.8377Z" fill="white"/>
<path d="M42.9082 34.7427H61.6969C62.3981 34.7427 62.9666 34.1742 62.9666 33.473V14.6843C62.9666 13.9831 62.3981 13.4146 61.6969 13.4146L42.9082 13.4146C42.207 13.4146 41.6385 13.9831 41.6385 14.6843V33.473C41.6385 34.1742 42.207 34.7427 42.9082 34.7427Z" fill="white"/>
</g>
<defs>
<clipPath id="clip0">
<rect width="220.061" height="44" fill="white" transform="translate(0 0.287109)"/>
</clipPath>
</defs>
</svg>
